<?xml version="1.0" encoding="UTF-8" standalone="no"?>
<!-- Created with Inkscape (http://www.inkscape.org/) -->

<svg
   width="44.772331mm"
   height="12.509816mm"
   viewBox="0 0 44.772331 12.509816"
   version="1.1"
   id="svg1"
   xml:space="preserve"
   xmlns="http://www.w3.org/2000/svg"
   xmlns:svg="http://www.w3.org/2000/svg"><defs
     id="defs1" /><g
     id="layer1"
     transform="translate(-82.65342,-142.17635)"><g
       style="fill:none"
       id="g1"
       transform="matrix(0.26458333,0,0,0.26458333,82.628615,141.9779)"><path
         d="m 10.5,27.0938 v 19.875 H 0.09375 V 2.625 H 10.5 V 23.7812 L 23.4375,2.625 H 35.1562 L 21.1562,25.5 35.25,46.9688 H 23.5 Z"
         fill="#10b981"
         id="path1" /><path
         d="m 53.25,13.9062 v 9.4376 C 52.7292,22.9896 52.0521,22.7917 51.2188,22.75 h -0.5626 c -2.5416,0.1042 -3.8124,1.875 -3.8124,5.3125 V 47 h -10 V 28.0625 c 0,-9.1042 4.6041,-13.8854 13.8124,-14.3437 h 0.5626 c 0.6874,0.0208 1.3645,0.0833 2.0312,0.1874 z"
         fill="#10b981"
         id="path2" /><path
         d="m 69.0625,23.8438 c -1.2917,0.7291 -2.3229,1.7083 -3.0937,2.9374 -0.7709,1.2292 -1.1563,2.573 -1.1563,4.0313 0,2.2083 0.8333,4.1146 2.5,5.7187 1.6458,1.5834 3.5937,2.375 5.8437,2.375 2.2709,0 4.2292,-0.7916 5.875,-2.375 1.6667,-1.6041 2.5,-3.5104 2.5,-5.7187 0,-1.4583 -0.3854,-2.8021 -1.1562,-4.0313 -0.7708,-1.2291 -1.8021,-2.2083 -3.0938,-2.9374 -1.2708,-0.7084 -2.6458,-1.0626 -4.125,-1.0626 -1.4374,0 -2.802,0.3542 -4.0937,1.0626 z M 81.5625,47 v -0.9375 c -0.6667,0.2917 -1.1563,0.4896 -1.4687,0.5937 -2.2084,0.8542 -4.5209,1.2813 -6.9376,1.2813 -3.1874,0 -6.1979,-0.7396 -9.0312,-2.2187 -2.8333,-1.5 -5.0833,-3.5417 -6.75,-6.125 -1.6875,-2.625 -2.5312,-5.5521 -2.5312,-8.7813 0,-2.4375 0.4895,-4.7083 1.4687,-6.8125 0.9792,-2.0833 2.3229,-3.8958 4.0313,-5.4375 1.6874,-1.5417 3.6458,-2.7187 5.875,-3.5313 2.2291,-0.8541 4.5416,-1.2812 6.9374,-1.2812 2.375,0 4.6876,0.4167 6.9376,1.25 2.25,0.8333 4.2083,2.0208 5.875,3.5625 1.75,1.5833 3.1041,3.3958 4.0624,5.4375 0.9792,2.1042 1.4688,4.375 1.4688,6.8125 l -0.0312,16.2813 z"
         fill="#ffffff"
         id="path3" /><path
         d="m 103.406,15.0312 v 32.0313 h -9.9685 v -32 z"
         fill="#ffffff"
         id="path4" /><path
         d="m 110.094,36.9375 c 1.979,1.9792 4.396,2.9687 7.25,2.9687 2.979,0 4.468,-0.875 4.468,-2.625 0,-0.9166 -0.822,-1.5937 -2.468,-2.0312 -1.167,-0.2708 -3.021,-0.7396 -5.563,-1.4062 -2.062,-0.5417 -3.802,-1.5417 -5.219,-3 -1.395,-1.4376 -2.093,-3.6459 -2.093,-6.625 0,-2.2917 0.573,-4.2292 1.719,-5.8126 1.166,-1.5833 2.677,-2.75 4.531,-3.5 1.896,-0.7708 3.969,-1.1562 6.219,-1.1562 1.27,0 2.562,0.1771 3.874,0.5312 1.417,0.4376 2.688,0.9792 3.813,1.625 1.229,0.6876 2.313,1.4584 3.25,2.3126 l -5.5,5.4687 c -1.604,-1.2083 -3.354,-1.8125 -5.25,-1.8125 -2.271,0 -3.406,0.6354 -3.406,1.9062 0,1.1459 0.843,1.948 2.531,2.4063 1.854,0.5 3.719,0.9687 5.594,1.4063 2.062,0.5208 3.781,1.4791 5.156,2.875 1.396,1.4166 2.094,3.6458 2.094,6.6874 0,2.2709 -0.604,4.2292 -1.813,5.875 -1.208,1.6667 -2.823,2.9063 -4.843,3.7188 -2.021,0.8542 -4.115,1.2812 -6.282,1.2812 -1.812,0 -3.448,-0.1458 -4.906,-0.4374 -1.458,-0.2709 -2.823,-0.7292 -4.094,-1.375 -1.312,-0.6459 -2.687,-1.5105 -4.125,-2.5938 z"
         fill="#10b981"
         id="path5" /><path
         d="m 159.344,30.8438 c 0,-1.4584 -0.386,-2.7917 -1.156,-4 -0.771,-1.2292 -1.803,-2.2084 -3.094,-2.9376 -1.271,-0.7291 -2.636,-1.0937 -4.094,-1.0937 -1.458,0 -2.833,0.3646 -4.125,1.0937 -1.292,0.7292 -2.323,1.7084 -3.094,2.9376 -0.771,1.2083 -1.156,2.5416 -1.156,4 0,2.2291 0.833,4.1458 2.5,5.75 C 146.771,38.1979 148.729,39 151,39 c 2.25,0 4.198,-0.8021 5.844,-2.4062 1.666,-1.6042 2.5,-3.5209 2.5,-5.75 z m 9.968,0.2187 c -0.02,3.1667 -0.864,6.0313 -2.531,8.5937 -1.666,2.6042 -3.916,4.6459 -6.75,6.125 -2.833,1.5 -5.843,2.25 -9.031,2.25 -2.438,0 -4.75,-0.427 -6.938,-1.2812 -2.166,-0.7917 -4.135,-1.9896 -5.906,-3.5938 -1.75,-1.6041 -3.104,-3.4374 -4.062,-5.5 -0.959,-2.0624 -1.438,-4.3333 -1.438,-6.8124 0,-2.4167 0.49,-4.6771 1.469,-6.7813 0.958,-2.0833 2.302,-3.9063 4.031,-5.4687 1.75,-1.5834 3.719,-2.7813 5.906,-3.5938 2.25,-0.8125 4.563,-1.2188 6.938,-1.2188 2.354,0 4.656,0.4063 6.906,1.2188 l 1.438,0.625 V 2.4375 l 9.968,0.03125 z"
         fill="#10b981"
         id="path6" /><path
         d="m 103.438,5.96875 c 0,1 -0.23,1.88542 -0.688,2.65625 -0.458,0.77083 -1.083,1.3958 -1.875,1.875 -0.792,0.4792 -1.6667,0.7188 -2.625,0.7188 -0.9583,0 -1.82472,-0.226152 -2.5938,-0.6876 C 94.862768,10.055141 94.23835,9.4173927 93.7812,8.625 93.300849,7.7923908 93.0625,6.90625 93.0625,5.96875 c 0,-0.95833 0.2292,-1.83333 0.6875,-2.625 0.5,-0.8125 1.1354,-1.44792 1.9062,-1.90625 C 96.4271,0.979167 97.2917,0.75 98.25,0.75 c 0.9583,0 1.833,0.229167 2.625,0.6875 0.771,0.45833 1.396,1.09375 1.875,1.90625 0.458,0.79167 0.688,1.66667 0.688,2.625 z"
         fill="#ffffff"
         id="path7"
         style="display:inline;fill:#10b981;fill-opacity:1" /></g></g></svg>
